<svg width="36" height="40" viewBox="0 0 36 40" fill="none" xmlns="http://www.w3.org/2000/svg">
<path d="M17.9914 34.3859C17.6819 34.3859 17.3721 34.3255 17.0621 34.2047C16.7521 34.0841 16.4771 33.889 16.2371 33.6193L14.2507 31.568C11.1567 28.3935 8.47075 25.3449 6.19275 22.4221C3.91475 19.4993 2.77575 16.4281 2.77575 13.2083C2.77575 10.6303 3.55125 8.47735 5.10225 6.74956C6.653 5.0215 8.57425 4.15747 10.866 4.15747C12.135 4.15747 13.3915 4.48789 14.6355 5.14872C15.8795 5.80928 16.998 6.90401 17.991 8.4329C19.109 6.90401 20.2525 5.80928 21.4215 5.14872C22.5905 4.48789 23.822 4.15747 25.116 4.15747C27.415 4.15747 29.3426 5.0215 30.8989 6.74956C32.4551 8.47735 33.2332 10.6303 33.2332 13.2083C33.2332 16.4281 32.0897 19.4993 29.8027 22.4221C27.5157 25.3449 24.8282 28.3969 21.7402 31.578L19.7437 33.6297C19.5075 33.8958 19.2356 34.0883 18.9281 34.2072C18.6206 34.3263 18.3084 34.3859 17.9914 34.3859ZM16.9714 11.5817C16.3201 10.2469 15.4415 9.14902 14.3355 8.2879C13.2295 7.42679 12.0737 6.99623 10.8682 6.99623C9.24325 6.99623 7.91412 7.57776 6.88087 8.74082C5.84737 9.90388 5.33062 11.399 5.33062 13.2263C5.33062 14.8152 5.81275 16.4879 6.777 18.2446C7.7415 20.001 8.89475 21.705 10.2367 23.3567C11.579 25.0081 12.9715 26.5466 14.4142 27.9721C15.857 29.3974 17.0499 30.5924 17.9929 31.5572C18.9379 30.6127 20.131 29.4212 21.5722 27.9826C23.0132 26.5437 24.4051 24.991 25.7479 23.3246C27.0909 21.6582 28.2484 19.9479 29.2204 18.1938C30.1924 16.4393 30.6784 14.7768 30.6784 13.2063C30.6784 11.3943 30.1535 9.90638 29.1037 8.74249C28.054 7.57832 26.7262 6.99623 25.1205 6.99623C23.8855 6.99623 22.7212 7.41984 21.6277 8.26707C20.5342 9.11429 19.64 10.2192 18.945 11.5817C18.818 11.8169 18.6725 11.9865 18.5085 12.0904C18.3445 12.1943 18.158 12.2463 17.949 12.2463C17.74 12.2463 17.551 12.1943 17.382 12.0904C17.2127 11.9865 17.0759 11.8169 16.9714 11.5817Z" fill="#FFBF00"/>
</svg>
