<svg width="71" height="36" viewBox="0 0 71 36" fill="none" xmlns="http://www.w3.org/2000/svg">
<g clip-path="url(#clip0_10202_31)">
<path d="M67.4113 17.0815L67.3742 17.1187C67.6344 16.4125 68.1547 16.1523 68.6007 16.1523C69.2326 16.1523 69.7901 16.6355 69.7901 17.3417C69.7901 17.4904 69.7901 17.6762 69.7158 17.8992C68.4149 21.2444 65.6644 22.9541 62.9883 23.2143C61.7618 25.2957 59.7547 26.8196 56.8927 26.8196C52.8042 26.8196 50.983 23.586 50.983 20.055C50.983 15.7063 53.7335 10.8744 58.3423 10.8744C59.3458 10.8744 60.2007 11.0975 60.9069 11.3948C62.9883 12.1753 64.3264 14.8886 64.3264 17.7877C64.3264 18.7169 64.252 19.6461 64.029 20.5382C65.4043 20.055 66.7051 18.9399 67.4113 17.0815ZM59.6432 13.9222V13.8851C58.8255 13.8851 58.3423 14.9629 58.3423 16.2638C58.3423 18.1594 59.383 19.9063 61.0184 20.5382C61.2786 19.7205 61.3901 18.7913 61.3901 17.7134C61.3901 15.632 60.7582 13.9222 59.6432 13.9222ZM56.9299 24.1063C57.9706 24.1063 59.0113 23.6603 59.829 22.7311C57.4131 21.6532 55.8892 19.1258 55.8892 16.7098C55.8892 15.8921 56.0379 15.0373 56.2609 14.2939C54.7742 15.5205 53.9193 17.9364 53.9193 20.055C53.9193 22.8054 55.2202 24.1063 56.9299 24.1063Z" fill="#FDFDFD"/>
<path d="M51.5568 17.0815L51.5196 17.1187C51.7799 16.4125 52.2258 16.1152 52.6718 16.1152C53.3037 16.1152 53.9355 16.6727 53.9355 17.3789C53.9355 17.5647 53.8984 17.7134 53.824 17.8992C52.3745 21.4302 50.2188 25.5559 46.7621 27.9718L46.6878 28.7152C46.2789 33.1754 44.0117 36.0001 41.1497 36.0001C38.9939 36.0001 37.7302 34.5134 37.7302 32.7665C37.7302 29.6072 40.9638 28.455 43.9745 26.5223C44.0488 25.7417 44.086 24.8497 44.1231 23.8461C42.6364 25.4815 41.0382 26.1506 39.6258 26.1506C36.801 26.1506 34.4966 23.8461 34.4966 20.3152C34.4966 14.8886 38.0647 11.3205 42.0417 11.3205H42.0789C44.7922 11.3205 47.6913 12.77 47.6913 15.3718C47.6913 16.2267 47.3196 20.8727 47.0223 24.478C49.0293 22.5824 50.7019 19.4975 51.5568 17.0815ZM40.0346 23.4745C41.4099 23.4745 43.2683 22.6196 44.4205 18.4196C44.6063 17.4904 44.7178 16.6727 44.6807 15.7063C44.4577 14.7028 43.6028 14.1081 42.3762 14.1081C39.8488 14.1081 37.4329 16.524 37.4329 20.2037C37.4329 22.4338 38.4736 23.4745 40.0346 23.4745ZM41.447 33.2869H41.4842C42.2647 33.2869 43.1196 32.7665 43.6771 29.4214C42.0417 30.3877 40.5178 31.3541 40.5178 32.5063C40.5178 32.9895 40.8895 33.2869 41.447 33.2869Z" fill="#FDFDFD"/>
<path d="M35.1488 17.0815L35.1117 17.1187C35.3718 16.4125 35.8922 16.1523 36.3382 16.1523C36.9701 16.1523 37.5276 16.6355 37.5276 17.3417C37.5276 17.4904 37.5276 17.6762 37.4533 17.8992C36.1524 21.2444 33.4019 22.9541 30.7258 23.2143C29.4993 25.2957 27.4922 26.8196 24.6302 26.8196C20.5417 26.8196 18.7205 23.586 18.7205 20.055C18.7205 15.7063 21.4709 10.8744 26.0798 10.8744C27.0833 10.8744 27.9382 11.0975 28.6444 11.3948C30.7258 12.1753 32.0639 14.8886 32.0639 17.7877C32.0639 18.7169 31.9895 19.6461 31.7665 20.5382C33.1418 20.055 34.4426 18.9399 35.1488 17.0815ZM27.3807 13.9222V13.8851C26.563 13.8851 26.0798 14.9629 26.0798 16.2638C26.0798 18.1594 27.1205 19.9063 28.7559 20.5382C29.0161 19.7205 29.1276 18.7913 29.1276 17.7134C29.1276 15.632 28.4957 13.9222 27.3807 13.9222ZM24.6674 24.1063C25.7081 24.1063 26.7488 23.6603 27.5665 22.7311C25.1506 21.6532 23.6267 19.1258 23.6267 16.7098C23.6267 15.8921 23.7754 15.0373 23.9984 14.2939C22.5117 15.5205 21.6568 17.9364 21.6568 20.055C21.6568 22.8054 22.9577 24.1063 24.6674 24.1063Z" fill="#FDFDFD"/>
<path d="M20.6096 15.9083C20.0892 15.9083 19.6432 16.1685 19.3458 16.8747C18.3795 19.3278 16.3723 23.4907 14.328 23.4907C13.0408 23.4907 12.0447 23.1996 11.0381 22.9054C10.0102 22.605 8.97136 22.3013 7.60047 22.3013C7.11727 22.3013 6.44823 22.3757 5.81636 22.4872C7.71994 19.8914 8.43108 16.7477 9.12016 10.8054C7.8227 10.7228 6.76729 10.4831 5.99801 10.241C5.17636 17.7775 4.2433 20.6511 0.835724 23.4907C0.389697 23.8624 0.166687 24.3828 0.166687 24.9032C0.166687 25.7209 0.872899 26.4271 1.76496 26.4271C2.06231 26.4271 2.39682 26.3156 2.73134 26.1669C4.62696 25.312 5.77919 25.089 7.19161 25.089C8.08978 25.089 9.16452 25.3459 10.3152 25.6208C11.6406 25.9376 13.0667 26.2784 14.4396 26.2784C17.4502 26.2784 19.4202 23.3421 21.6131 17.6552C21.7247 17.4694 21.7618 17.2464 21.7618 17.0605C21.7618 16.3543 21.2043 15.9083 20.6096 15.9083Z" fill="#FDFDFD"/>
<path fill-rule="evenodd" clip-rule="evenodd" d="M6.1866 8.70287C6.85969 8.93784 7.91051 9.2114 9.27294 9.29233L9.49595 9.29222C13.6961 9.29222 16.4466 6.6904 16.4466 3.56821C16.4466 1.56109 14.8855 0 12.6925 0C9.75613 0 7.71185 2.00712 6.67112 5.98419C5.37021 5.27798 4.47816 4.01424 4.03213 2.41598C3.80911 1.63543 3.32592 1.15223 2.65687 1.15223C1.83916 1.15223 1.31879 1.78411 1.31879 2.63899C1.31879 5.16648 3.28875 7.58245 6.18792 8.69752L6.1866 8.70287ZM9.71896 6.57889C10.2765 4.01424 11.1686 2.78767 12.358 2.78767C12.9899 2.78767 13.3987 3.15936 13.3987 3.8284C13.3987 5.05497 12.0978 6.50455 9.71896 6.57889Z" fill="#FDFDFD"/>
</g>
<defs>
<clipPath id="clip0_10202_31">
<rect width="70" height="36" fill="white" transform="translate(0.166687)"/>
</clipPath>
</defs>
</svg>
