<svg width="37" height="40" viewBox="0 0 37 40" fill="none" xmlns="http://www.w3.org/2000/svg">
<path d="M17.1666 20.8335V24.1014C17.1666 24.3306 17.2499 24.5376 17.4164 24.7226C17.5829 24.9076 17.7693 25.0001 17.9755 25.0001H19.4043C19.6253 25.0001 19.8075 24.9076 19.951 24.7226C20.0948 24.5376 20.1666 24.3306 20.1666 24.1014V20.8335H23.1542C23.3752 20.8335 23.5575 20.741 23.701 20.556C23.8447 20.371 23.9166 20.1639 23.9166 19.9347V18.3472C23.9166 18.1017 23.8447 17.8991 23.701 17.7397C23.5575 17.58 23.3752 17.5001 23.1542 17.5001H20.1666V14.1805C20.1666 13.935 20.0948 13.7325 19.951 13.573C19.8075 13.4133 19.6253 13.3334 19.4043 13.3334H17.9755C17.7693 13.3334 17.5829 13.4133 17.4164 13.573C17.2499 13.7325 17.1666 13.935 17.1666 14.1805V17.5001H14.2255C14.0193 17.5001 13.8329 17.58 13.6664 17.7397C13.4999 17.8991 13.4166 18.1017 13.4166 18.3472V19.9347C13.4166 20.1639 13.4999 20.371 13.6664 20.556C13.8329 20.741 14.0193 20.8335 14.2255 20.8335H17.1666ZM18.6666 36.7394C18.5156 36.7394 18.3743 36.7238 18.2425 36.6927C18.1105 36.6616 17.9815 36.6149 17.8555 36.5527C14.3505 35.2471 11.5721 32.8767 9.52038 29.4414C7.46838 26.0058 6.44238 22.26 6.44238 18.2039V10.1113C6.44238 9.50356 6.59476 8.95411 6.89951 8.463C7.20426 7.97189 7.60513 7.62008 8.10213 7.40758L17.7715 3.3959C18.0765 3.27145 18.3749 3.20923 18.6666 3.20923C18.9584 3.20923 19.2568 3.27145 19.5618 3.3959L29.2311 7.40758C29.7281 7.62008 30.1305 7.97189 30.4382 8.463C30.746 8.95411 30.8999 9.50356 30.8999 10.1113V18.2039C30.8999 22.26 29.8724 26.0058 27.8174 29.4414C25.7626 32.8767 22.9827 35.2471 19.4778 36.5527C19.3518 36.6149 19.2228 36.6616 19.0908 36.6927C18.959 36.7238 18.8176 36.7394 18.6666 36.7394ZM18.6666 33.9623C21.5116 32.8734 23.8345 30.8786 25.6352 27.9781C27.4357 25.0772 28.336 21.8201 28.336 18.2068V10.1113L18.6666 6.05799L8.99726 10.1113V18.2068C8.99726 21.8201 9.89751 25.0772 11.698 27.9781C13.4988 30.8786 15.8216 32.8734 18.6666 33.9623Z" fill="#FFBF00"/>
</svg>
