<svg width="49" height="48" viewBox="0 0 49 48" fill="none" xmlns="http://www.w3.org/2000/svg">
<path d="M33.7012 13.6488C32.9212 13.6488 32.252 13.3402 31.6935 12.723C31.135 12.1058 30.8557 11.364 30.8557 10.4976C30.8557 9.6309 31.134 8.88728 31.6905 8.26672C32.247 7.64644 32.9152 7.3363 33.6952 7.3363C34.475 7.3363 35.1436 7.64533 35.7011 8.26339C36.2586 8.88145 36.5373 9.62451 36.5373 10.4926C36.5373 11.3578 36.2596 12.1002 35.7041 12.7197C35.1486 13.3391 34.481 13.6488 33.7012 13.6488ZM31.182 39.3273V26.6668C31.182 25.8635 31.0061 25.1404 30.6543 24.4976C30.3023 23.8551 29.7766 23.3919 29.0771 23.108L30.7312 17.8788C30.9372 17.1844 31.3135 16.6272 31.86 16.2072C32.4065 15.7872 33.0186 15.5772 33.6963 15.5772C34.3743 15.5772 34.9866 15.7872 35.5331 16.2072C36.0796 16.6272 36.4558 17.1844 36.6618 17.8788L40.0248 28.4539C40.1736 28.9025 40.1268 29.3324 39.8846 29.7435C39.6421 30.1543 39.294 30.3597 38.8402 30.3597H36.3618V39.3273C36.3618 39.7278 36.2391 40.0645 35.9936 40.3373C35.7481 40.6101 35.4451 40.7464 35.0846 40.7464H32.4682C32.1017 40.7464 31.7957 40.6101 31.5502 40.3373C31.3047 40.0645 31.182 39.7278 31.182 39.3273ZM24.8996 23.2264C24.2481 23.2264 23.6932 22.9708 23.235 22.4597C22.7765 21.9486 22.5472 21.3312 22.5472 20.6076C22.5472 19.8837 22.7752 19.2677 23.2312 18.7597C23.6872 18.2513 24.2408 17.9972 24.8921 17.9972C25.5436 17.9972 26.0985 18.2505 26.5567 18.7572C27.0152 19.2639 27.2445 19.8791 27.2445 20.603C27.2445 21.3266 27.0165 21.9448 26.5605 22.4576C26.1045 22.9701 25.5508 23.2264 24.8996 23.2264ZM14.2785 13.6488C13.4985 13.6488 12.8294 13.3402 12.2711 12.723C11.7126 12.1058 11.4334 11.364 11.4334 10.4976C11.4334 9.6309 11.7115 8.88728 12.2677 8.26672C12.8242 7.64644 13.4931 7.3363 14.2744 7.3363C15.0531 7.3363 15.7211 7.64533 16.2784 8.26339C16.8359 8.88145 17.1146 9.62451 17.1146 10.4926C17.1146 11.3578 16.8369 12.1002 16.2814 12.7197C15.7261 13.3391 15.0585 13.6488 14.2785 13.6488ZM11.4382 39.3273V28.6931H10.0729C9.71586 28.6931 9.41673 28.5589 9.17548 28.2906C8.93398 28.0225 8.81323 27.6901 8.81323 27.2935V18.4459C8.81323 17.6651 9.06423 16.9968 9.56623 16.4409C10.0685 15.8851 10.6721 15.6072 11.3771 15.6072H17.1709C17.8759 15.6072 18.4795 15.8851 18.9817 16.4409C19.4837 16.9968 19.7347 17.6651 19.7347 18.4459V27.2935C19.7347 27.6901 19.614 28.0225 19.3725 28.2906C19.1312 28.5589 18.8321 28.6931 18.4751 28.6931H17.1097V39.3273C17.1097 39.7278 16.987 40.0645 16.7415 40.3373C16.496 40.6101 16.1929 40.7464 15.8321 40.7464H12.7256C12.3584 40.7464 12.052 40.6101 11.8065 40.3373C11.561 40.0645 11.4382 39.7278 11.4382 39.3273ZM22.7347 39.3273V33.6431H21.9847C21.666 33.6431 21.3987 33.5234 21.183 33.2839C20.9675 33.0442 20.8597 32.7472 20.8597 32.3931V26.926C20.8597 26.3435 21.0426 25.8492 21.4084 25.443C21.7739 25.0367 22.2187 24.8335 22.743 24.8335H27.0487C27.573 24.8335 28.0178 25.0367 28.3833 25.443C28.7491 25.8492 28.932 26.3435 28.932 26.926V32.3931C28.932 32.7472 28.8242 33.0442 28.6087 33.2839C28.393 33.5234 28.1257 33.6431 27.807 33.6431H27.057V39.3273C27.057 39.7278 26.9342 40.0645 26.6887 40.3373C26.4432 40.6101 26.1402 40.7464 25.7797 40.7464H24.012C23.6515 40.7464 23.3485 40.6101 23.103 40.3373C22.8575 40.0645 22.7347 39.7278 22.7347 39.3273Z" fill="#FFBF00"/>
</svg>
